<svg data-v-70b83f88="" version="1.0" xmlns="http://www.w3.org/2000/svg" xmlns:xlink="http://www.w3.org/1999/xlink" width="100%" height="100%" viewBox="0 0 340 250" preserveAspectRatio="xMidYMid meet" color-interpolation-filters="sRGB" style="margin: auto;">   <g data-v-70b83f88="" fill="#333" class="iconlettersvg-g iconlettersvg" transform="translate(29.549514770507812,72.92186737060547)">
  <g>
  <g class="tp-name" transform="translate(0,0)">
    <g transform="scale(1.759999999999999)">
      <g transform="translate(0, 0)">
        <g class="name-imagesvg">
          <g>
          <rect fill="#333" fill-opacity="0" stroke-width="2" x="0" y="0" width="64.85419276838611" height="50.00014861719101" class="image-rect">
          </rect> <svg x="0" y="0" width="64.85419276838611" height="50.00014861719101" filtersec="colorsb6042885752" class="image-svg-svg primary" style="overflow: visible;">
          <svg xmlns="http://www.w3.org/2000/svg" viewBox="0 0 161.01998901367188 124.13999938964844">
            <title>S</title>
            <path d="M43.18 42.28h77.06c22.49 0 40.78 18.59 40.78 41.08a40.82 40.82 0 0 1-40.78 40.78H43.18z" fill="#4195d2">
            </path>
            <path d="M118.14 81.86H41.08A41.34 41.34 0 0 1 0 40.78C0 18.29 18.59 0 41.08 0h77.06z" fill="#cfb371">
            </path>
            <path fill="#00234b" d="M118.14 81.86H43.18V42.28h74.96v39.58z">
            </path>
          </svg>
        </svg> <!---->
      </g>
    </g>
  </g>
  <g transform="translate(59.85419276838611, 0)">
    <g class="name-imagesvg">
      <g>
      <rect fill="#333" fill-opacity="0" stroke-width="2" x="0" y="0" width="56.82281821112014" height="49.99984003935039" class="image-rect">
      </rect> <svg x="0" y="0" width="56.82281821112014" height="49.99984003935039" filtersec="colorsb1352256464" class="image-svg-svg primary" style="overflow: visible;">
      <svg xmlns="http://www.w3.org/2000/svg" viewBox="0 0 144.8300018310547 127.44000244140625">
        <title>A</title>
        <path fill="#4195d2" d="M0 127.44h50.38l47.07-83.06L72.27 0 0 127.44z">
        </path>
        <path fill="#76bd4e" d="M144.83 127.44H94.45L47.08 44.38 72.27 0l72.56 127.44z">
        </path>
        <path fill="#380c0a" d="M72.27 88.76l25.18-44.38L72.27 0 47.08 44.38l25.19 44.38z">
        </path>
      </svg>
    </svg> <!---->
  </g>
</g>
</g>
<g transform="translate(111.67701097950626, 0)">
  <g class="name-imagesvg">
    <g>
    <rect fill="#333" fill-opacity="0" stroke-width="2" x="0" y="0" width="47.92581813370641" height="49.99981026343363" class="image-rect">
    </rect> <svg x="0" y="0" width="47.92581813370641" height="49.99981026343363" filtersec="colorsb5025638041" class="image-svg-svg primary" style="overflow: visible;">
    <svg xmlns="http://www.w3.org/2000/svg" viewBox="0 0 117.84000396728516 122.94000244140625">
      <title>P</title>
      <path d="M0 0h79.16a38.77 38.77 0 0 1 38.68 38.68 38.77 38.77 0 0 1-38.68 38.68H0z" fill="#c71343">
      </path>
      <path fill="#4195d2" d="M0 0h62.37v122.94H0z">
      </path>
      <path fill="#008296" d="M62.07 0H0v77.36h62.07V0z">
      </path>
    </svg>
  </svg> <!---->
</g>
</g>
</g>
</g>
</g>
</g> <g data-gra="path-slogan" fill-rule="" class="tp-slogan" fill="#333" transform="translate(5,96.00025939941406)">
<rect x="0" height="1" y="3.580000400543213" width="31.445480346679688">
</rect> <rect height="1" y="3.580000400543213" width="31.445480346679688" x="239.4554901123047">
</rect> <g transform="translate(34.44548034667969,0)">
<g transform="scale(1)">
  <path d="M0.62-3.94L0.62-3.94Q0.62-4.88 0.89-5.64Q1.15-6.40 1.62-6.92Q2.09-7.45 2.73-7.73Q3.37-8.02 4.13-8.02L4.13-8.02Q4.85-8.02 5.39-7.72Q5.93-7.43 6.28-7.04L6.28-7.04L5.71-6.41Q5.40-6.74 5.02-6.94Q4.64-7.14 4.14-7.14L4.14-7.14Q3.58-7.14 3.12-6.92Q2.66-6.70 2.34-6.28Q2.02-5.87 1.84-5.28Q1.66-4.69 1.66-3.96L1.66-3.96Q1.66-3.22 1.83-2.62Q2.00-2.03 2.32-1.61Q2.63-1.19 3.08-0.96Q3.53-0.73 4.09-0.73L4.09-0.73Q4.67-0.73 5.09-0.96Q5.52-1.19 5.90-1.61L5.90-1.61L6.47-1.00Q6-0.46 5.41-0.16Q4.82 0.14 4.07 0.14L4.07 0.14Q3.32 0.14 2.69-0.13Q2.06-0.41 1.60-0.93Q1.14-1.45 0.88-2.21Q0.62-2.98 0.62-3.94ZM8.93 0L8.93-7.87L9.93-7.87L9.93-0.85L13.37-0.85L13.37 0L8.93 0ZM18.36 0.14L18.36 0.14Q17.61 0.14 16.99-0.14Q16.38-0.43 15.93-0.97Q15.49-1.50 15.24-2.26Q15.00-3.02 15.00-3.97L15.00-3.97Q15.00-4.92 15.24-5.67Q15.49-6.42 15.93-6.94Q16.38-7.46 16.99-7.74Q17.61-8.02 18.36-8.02L18.36-8.02Q19.10-8.02 19.72-7.73Q20.34-7.45 20.79-6.93Q21.24-6.41 21.48-5.66Q21.73-4.91 21.73-3.97L21.73-3.97Q21.73-3.02 21.48-2.26Q21.24-1.50 20.79-0.97Q20.34-0.43 19.72-0.14Q19.10 0.14 18.36 0.14ZM18.36-0.73L18.36-0.73Q18.88-0.73 19.31-0.96Q19.74-1.19 20.04-1.61Q20.35-2.04 20.52-2.63Q20.68-3.23 20.68-3.97L20.68-3.97Q20.68-4.70 20.52-5.29Q20.35-5.88 20.04-6.29Q19.74-6.70 19.31-6.92Q18.88-7.14 18.36-7.14L18.36-7.14Q17.83-7.14 17.40-6.92Q16.98-6.70 16.67-6.29Q16.36-5.88 16.20-5.29Q16.03-4.70 16.03-3.97L16.03-3.97Q16.03-3.23 16.20-2.63Q16.36-2.04 16.67-1.61Q16.98-1.19 17.40-0.96Q17.83-0.73 18.36-0.73ZM24.38-3.25L24.38-7.87L25.38-7.87L25.38-3.23Q25.38-2.52 25.52-2.04Q25.67-1.56 25.91-1.27Q26.16-0.98 26.50-0.86Q26.83-0.73 27.22-0.73L27.22-0.73Q27.61-0.73 27.95-0.86Q28.28-0.98 28.54-1.27Q28.79-1.56 28.93-2.04Q29.08-2.52 29.08-3.23L29.08-3.23L29.08-7.87L30.04-7.87L30.04-3.25Q30.04-2.30 29.82-1.66Q29.60-1.01 29.23-0.61Q28.85-0.20 28.33-0.03Q27.82 0.14 27.22 0.14L27.22 0.14Q26.62 0.14 26.09-0.03Q25.57-0.20 25.19-0.61Q24.82-1.01 24.60-1.66Q24.38-2.30 24.38-3.25L24.38-3.25ZM33.16 0L33.16-7.87L35.13-7.87Q36.95-7.87 37.90-6.86Q38.85-5.86 38.85-3.97L38.85-3.97Q38.85-3.04 38.61-2.30Q38.37-1.56 37.90-1.05Q37.43-0.54 36.75-0.27Q36.06 0 35.18 0L35.18 0L33.16 0ZM34.16-0.82L35.06-0.82Q36.44-0.82 37.13-1.64Q37.82-2.47 37.82-3.97L37.82-3.97Q37.82-5.47 37.13-6.26Q36.44-7.06 35.06-7.06L35.06-7.06L34.16-7.06L34.16-0.82ZM45.95-3.20L48.31-3.20L47.94-4.40Q47.72-5.06 47.53-5.72Q47.34-6.37 47.15-7.06L47.15-7.06L47.10-7.06Q46.92-6.37 46.73-5.72Q46.54-5.06 46.32-4.40L46.32-4.40L45.95-3.20ZM49.31 0L48.56-2.40L45.70-2.40L44.94 0L43.92 0L46.58-7.87L47.71-7.87L50.38 0L49.31 0ZM52.49 0L52.49-7.87L54.90-7.87Q55.55-7.87 56.09-7.75Q56.63-7.63 57.01-7.36Q57.39-7.09 57.60-6.65Q57.81-6.20 57.81-5.56L57.81-5.56Q57.81-4.93 57.60-4.48Q57.39-4.02 57.00-3.72Q56.62-3.42 56.09-3.27Q55.55-3.12 54.90-3.12L54.90-3.12L53.49-3.12L53.49 0L52.49 0ZM53.49-3.94L54.78-3.94Q55.82-3.94 56.31-4.33Q56.81-4.72 56.81-5.56L56.81-5.56Q56.81-6.41 56.31-6.74Q55.80-7.07 54.78-7.07L54.78-7.07L53.49-7.07L53.49-3.94ZM60.40 0L60.40-7.87L62.82-7.87Q63.46-7.87 64.00-7.75Q64.54-7.63 64.92-7.36Q65.30-7.09 65.51-6.65Q65.72-6.20 65.72-5.56L65.72-5.56Q65.72-4.93 65.51-4.48Q65.30-4.02 64.92-3.72Q64.53-3.42 64.00-3.27Q63.46-3.12 62.82-3.12L62.82-3.12L61.40-3.12L61.40 0L60.40 0ZM61.40-3.94L62.70-3.94Q63.73-3.94 64.23-4.33Q64.72-4.72 64.72-5.56L64.72-5.56Q64.72-6.41 64.22-6.74Q63.72-7.07 62.70-7.07L62.70-7.07L61.40-7.07L61.40-3.94ZM68.32 0L68.32-7.87L69.31-7.87L69.31-0.85L72.76-0.85L72.76 0L68.32 0ZM75.15 0L75.15-7.87L76.14-7.87L76.14 0L75.15 0ZM78.85-3.94L78.85-3.94Q78.85-4.88 79.11-5.64Q79.38-6.40 79.84-6.92Q80.31-7.45 80.95-7.73Q81.60-8.02 82.35-8.02L82.35-8.02Q83.07-8.02 83.61-7.72Q84.15-7.43 84.50-7.04L84.50-7.04L83.94-6.41Q83.62-6.74 83.25-6.94Q82.87-7.14 82.36-7.14L82.36-7.14Q81.80-7.14 81.34-6.92Q80.89-6.70 80.56-6.28Q80.24-5.87 80.06-5.28Q79.88-4.69 79.88-3.96L79.88-3.96Q79.88-3.22 80.05-2.62Q80.23-2.03 80.54-1.61Q80.85-1.19 81.30-0.96Q81.75-0.73 82.32-0.73L82.32-0.73Q82.89-0.73 83.32-0.96Q83.74-1.19 84.13-1.61L84.13-1.61L84.69-1.00Q84.22-0.46 83.64-0.16Q83.05 0.14 82.29 0.14L82.29 0.14Q81.55 0.14 80.92-0.13Q80.29-0.41 79.83-0.93Q79.36-1.45 79.11-2.21Q78.85-2.98 78.85-3.94ZM88.14-3.20L90.50-3.20L90.13-4.40Q89.92-5.06 89.72-5.72Q89.53-6.37 89.34-7.06L89.34-7.06L89.29-7.06Q89.11-6.37 88.92-5.72Q88.73-5.06 88.51-4.40L88.51-4.40L88.14-3.20ZM91.50 0L90.76-2.40L87.89-2.40L87.13 0L86.11 0L88.78-7.87L89.90-7.87L92.57 0L91.50 0ZM95.84 0L95.84-7.03L93.46-7.03L93.46-7.87L99.22-7.87L99.22-7.03L96.84-7.03L96.84 0L95.84 0ZM101.64 0L101.64-7.87L102.63-7.87L102.63 0L101.64 0ZM108.70 0.14L108.70 0.14Q107.95 0.14 107.33-0.14Q106.72-0.43 106.27-0.97Q105.83-1.50 105.58-2.26Q105.34-3.02 105.34-3.97L105.34-3.97Q105.34-4.92 105.58-5.67Q105.83-6.42 106.27-6.94Q106.72-7.46 107.33-7.74Q107.95-8.02 108.70-8.02L108.70-8.02Q109.44-8.02 110.06-7.73Q110.68-7.45 111.13-6.93Q111.58-6.41 111.82-5.66Q112.07-4.91 112.07-3.97L112.07-3.97Q112.07-3.02 111.82-2.26Q111.58-1.50 111.13-0.97Q110.68-0.43 110.06-0.14Q109.44 0.14 108.70 0.14ZM108.70-0.73L108.70-0.73Q109.22-0.73 109.65-0.96Q110.08-1.19 110.38-1.61Q110.69-2.04 110.86-2.63Q111.02-3.23 111.02-3.97L111.02-3.97Q111.02-4.70 110.86-5.29Q110.69-5.88 110.38-6.29Q110.08-6.70 109.65-6.92Q109.22-7.14 108.70-7.14L108.70-7.14Q108.17-7.14 107.74-6.92Q107.32-6.70 107.01-6.29Q106.70-5.88 106.54-5.29Q106.37-4.70 106.37-3.97L106.37-3.97Q106.37-3.23 106.54-2.63Q106.70-2.04 107.01-1.61Q107.32-1.19 107.74-0.96Q108.17-0.73 108.70-0.73ZM114.76 0L114.76-7.87L115.79-7.87L118.64-2.93L119.49-1.30L119.54-1.30Q119.50-1.90 119.46-2.54Q119.42-3.18 119.42-3.80L119.42-3.80L119.42-7.87L120.36-7.87L120.36 0L119.33 0L116.48-4.96L115.62-6.58L115.58-6.58Q115.62-5.98 115.67-5.36Q115.71-4.74 115.71-4.12L115.71-4.12L115.71 0L114.76 0ZM122.95-1.02L123.55-1.72Q123.97-1.27 124.54-1.00Q125.11-0.73 125.72-0.73L125.72-0.73Q126.50-0.73 126.93-1.09Q127.36-1.44 127.36-2.02L127.36-2.02Q127.36-2.32 127.26-2.53Q127.16-2.74 126.99-2.89Q126.81-3.04 126.57-3.16Q126.33-3.28 126.06-3.41L126.06-3.41L124.93-3.90Q124.65-4.02 124.36-4.19Q124.08-4.36 123.85-4.60Q123.62-4.84 123.48-5.17Q123.33-5.50 123.33-5.93L123.33-5.93Q123.33-6.37 123.52-6.76Q123.70-7.14 124.03-7.42Q124.36-7.70 124.81-7.86Q125.26-8.02 125.80-8.02L125.80-8.02Q126.51-8.02 127.11-7.75Q127.71-7.48 128.13-7.04L128.13-7.04L127.59-6.40Q127.23-6.74 126.79-6.94Q126.36-7.14 125.80-7.14L125.80-7.14Q125.14-7.14 124.74-6.83Q124.34-6.53 124.34-5.99L124.34-5.99Q124.34-5.70 124.45-5.50Q124.57-5.30 124.76-5.15Q124.95-5.00 125.18-4.89Q125.41-4.78 125.65-4.68L125.65-4.68L126.76-4.20Q127.10-4.06 127.40-3.87Q127.70-3.68 127.92-3.44Q128.13-3.19 128.26-2.86Q128.38-2.53 128.38-2.10L128.38-2.10Q128.38-1.63 128.20-1.22Q128.01-0.82 127.66-0.51Q127.32-0.20 126.82-0.03Q126.33 0.14 125.71 0.14L125.71 0.14Q124.88 0.14 124.17-0.17Q123.46-0.48 122.95-1.02L122.95-1.02ZM133.90-3.94L133.90-3.94Q133.90-4.88 134.17-5.64Q134.44-6.40 134.93-6.92Q135.41-7.45 136.07-7.73Q136.73-8.02 137.52-8.02L137.52-8.02Q138.34-8.02 138.89-7.71Q139.43-7.40 139.78-7.04L139.78-7.04L139.22-6.41Q138.92-6.72 138.53-6.93Q138.14-7.14 137.54-7.14L137.54-7.14Q136.94-7.14 136.46-6.92Q135.98-6.70 135.64-6.28Q135.30-5.87 135.12-5.28Q134.93-4.69 134.93-3.96L134.93-3.96Q134.93-3.22 135.11-2.62Q135.28-2.03 135.61-1.61Q135.94-1.19 136.43-0.96Q136.91-0.73 137.55-0.73L137.55-0.73Q137.97-0.73 138.35-0.86Q138.72-0.98 138.96-1.20L138.96-1.20L138.96-3.25L137.30-3.25L137.30-4.08L139.88-4.08L139.88-0.77Q139.49-0.37 138.86-0.11Q138.23 0.14 137.44 0.14L137.44 0.14Q136.66 0.14 136.01-0.13Q135.36-0.41 134.90-0.93Q134.43-1.45 134.16-2.21Q133.90-2.98 133.90-3.94ZM142.76 0L142.76-7.87L147.30-7.87L147.30-7.03L143.76-7.03L143.76-4.56L146.74-4.56L146.74-3.71L143.76-3.71L143.76-0.85L147.42-0.85L147.42 0L142.76 0ZM150.08 0L150.08-7.87L151.12-7.87L153.96-2.93L154.81-1.30L154.86-1.30Q154.82-1.90 154.78-2.54Q154.74-3.18 154.74-3.80L154.74-3.80L154.74-7.87L155.69-7.87L155.69 0L154.66 0L151.80-4.96L150.95-6.58L150.90-6.58Q150.95-5.98 150.99-5.36Q151.03-4.74 151.03-4.12L151.03-4.12L151.03 0L150.08 0ZM158.85 0L158.85-7.87L163.38-7.87L163.38-7.03L159.84-7.03L159.84-4.56L162.83-4.56L162.83-3.71L159.84-3.71L159.84-0.85L163.50-0.85L163.50 0L158.85 0ZM167.17-7.07L167.17-4.14L168.49-4.14Q169.41-4.14 169.90-4.52Q170.40-4.90 170.40-5.66L170.40-5.66Q170.40-6.44 169.90-6.76Q169.41-7.07 168.49-7.07L168.49-7.07L167.17-7.07ZM171.62 0L170.49 0L168.60-3.32L167.17-3.32L167.17 0L166.17 0L166.17-7.87L168.63-7.87Q169.23-7.87 169.74-7.76Q170.25-7.64 170.62-7.38Q170.98-7.12 171.19-6.70Q171.39-6.28 171.39-5.66L171.39-5.66Q171.39-4.74 170.91-4.19Q170.43-3.64 169.63-3.43L169.63-3.43L171.62 0ZM175.01-3.20L177.37-3.20L177.00-4.40Q176.78-5.06 176.59-5.72Q176.40-6.37 176.21-7.06L176.21-7.06L176.16-7.06Q175.98-6.37 175.79-5.72Q175.60-5.06 175.38-4.40L175.38-4.40L175.01-3.20ZM178.37 0L177.62-2.40L174.76-2.40L174.00 0L172.98 0L175.64-7.87L176.77-7.87L179.44 0L178.37 0ZM182.70 0L182.70-7.03L180.33-7.03L180.33-7.87L186.09-7.87L186.09-7.03L183.71-7.03L183.71 0L182.70 0ZM191.12 0.14L191.12 0.14Q190.38 0.14 189.76-0.14Q189.14-0.43 188.70-0.97Q188.25-1.50 188.01-2.26Q187.76-3.02 187.76-3.97L187.76-3.97Q187.76-4.92 188.01-5.67Q188.25-6.42 188.70-6.94Q189.14-7.46 189.76-7.74Q190.38-8.02 191.12-8.02L191.12-8.02Q191.86-8.02 192.48-7.73Q193.10-7.45 193.55-6.93Q194.00-6.41 194.25-5.66Q194.49-4.91 194.49-3.97L194.49-3.97Q194.49-3.02 194.25-2.26Q194.00-1.50 193.55-0.97Q193.10-0.43 192.48-0.14Q191.86 0.14 191.12 0.14ZM191.12-0.73L191.12-0.73Q191.65-0.73 192.07-0.96Q192.50-1.19 192.81-1.61Q193.11-2.04 193.28-2.63Q193.45-3.23 193.45-3.97L193.45-3.97Q193.45-4.70 193.28-5.29Q193.11-5.88 192.81-6.29Q192.50-6.70 192.07-6.92Q191.65-7.14 191.12-7.14L191.12-7.14Q190.59-7.14 190.17-6.92Q189.74-6.70 189.43-6.29Q189.13-5.88 188.96-5.29Q188.79-4.70 188.79-3.97L188.79-3.97Q188.79-3.23 188.96-2.63Q189.13-2.04 189.43-1.61Q189.74-1.19 190.17-0.96Q190.59-0.73 191.12-0.73ZM198.18-7.07L198.18-4.14L199.50-4.14Q200.42-4.14 200.92-4.52Q201.41-4.90 201.41-5.66L201.41-5.66Q201.41-6.44 200.92-6.76Q200.42-7.07 199.50-7.07L199.50-7.07L198.18-7.07ZM202.63 0L201.50 0L199.61-3.32L198.18-3.32L198.18 0L197.18 0L197.18-7.87L199.64-7.87Q200.24-7.87 200.75-7.76Q201.26-7.64 201.63-7.38Q202.00-7.12 202.20-6.70Q202.40-6.28 202.40-5.66L202.40-5.66Q202.40-4.74 201.92-4.19Q201.44-3.64 200.64-3.43L200.64-3.43L202.63 0Z" transform="translate(-0.624, 8.016)">
  </path>
</g>
</g>
</g>
</g>
<defs v-gra="od">
</defs>
</svg>